HIERARCHY
ROOT ROOT
{
	OFFSET 0.000000 56.020000 -5.659234
	CHANNELS 6 Xposition Yposition Zposition Xrotation Yrotation Zrotation 
	JOINT C_spine0001_bind_JNT
	{
		OFFSET 0.000000 1.618999 0.000000
		CHANNELS 3 Xrotation Yrotation Zrotation
		JOINT C_spine0002_bind_JNT
		{
			OFFSET 0.000000 4.942001 0.000001
			CHANNELS 3 Xrotation Yrotation Zrotation
			JOINT C_spine0003_bind_JNT
			{
				OFFSET 0.000000 4.942001 -0.000000
				CHANNELS 3 Xrotation Yrotation Zrotation
				JOINT C_neck0001_bind_JNT
				{
					OFFSET 0.000000 17.026009 -0.000000
					CHANNELS 3 Xrotation Yrotation Zrotation
					JOINT C_neck0002_bind_JNT
					{
						OFFSET 0.000000 3.249985 0.000000
						CHANNELS 3 Xrotation Yrotation Zrotation
						JOINT C_head_bind_JNT
						{
							OFFSET 0.000000 5.278008 0.000000
							CHANNELS 3 Xrotation Yrotation Zrotation
							End Site
							{
								OFFSET 0.000000 0.000000 0.000000
							}
						}
					}
				}
				JOINT L_clavicle_bind_JNT
				{
					OFFSET 4.590000 12.067001 0.834000
					CHANNELS 3 Xrotation Yrotation Zrotation
					JOINT L_armUpper0001_bind_JNT
					{
						OFFSET 7.812635 0.512001 -3.452945
						CHANNELS 3 Xrotation Yrotation Zrotation
						JOINT L_armLower0001_bind_JNT
						{
							OFFSET 15.265892 -6.552116 -0.058157
							CHANNELS 3 Xrotation Yrotation Zrotation
							JOINT L_hand0001_bind_JNT
							{
								OFFSET 14.747667 -6.369995 5.049225
								CHANNELS 3 Xrotation Yrotation Zrotation
								End Site
								{
									OFFSET 0.000000 0.000000 0.000000
								}
							}
						}
					}
				}
				JOINT R_clavicle_bind_JNT
				{
					OFFSET -4.590000 12.067001 0.834000
					CHANNELS 3 Xrotation Yrotation Zrotation
					JOINT R_armUpper0001_bind_JNT
					{
						OFFSET -7.812635 0.512001 -3.452945
						CHANNELS 3 Xrotation Yrotation Zrotation
						JOINT R_armLower0001_bind_JNT
						{
							OFFSET -15.265890 -6.552124 -0.058160
							CHANNELS 3 Xrotation Yrotation Zrotation
							JOINT R_hand0001_bind_JNT
							{
								OFFSET -14.746784 -6.369629 5.048937
								CHANNELS 3 Xrotation Yrotation Zrotation
								End Site
								{
									OFFSET 0.000000 0.000000 0.000000
								}
							}
						}
					}
				}
			}
		}
	}
	JOINT C_pelvis0001_bind_JNT
	{
		OFFSET -0.000000 0.000000 0.000000
		CHANNELS 3 Xrotation Yrotation Zrotation
		JOINT L_legUpper0001_bind_JNT
		{
			OFFSET 6.599999 -6.027000 0.539000
			CHANNELS 3 Xrotation Yrotation Zrotation
			JOINT L_legLower0001_bind_JNT
			{
				OFFSET -0.140713 -19.187443 0.040261
				CHANNELS 3 Xrotation Yrotation Zrotation
				JOINT L_foot0001_bind_JNT
				{
					OFFSET -0.132215 -18.028637 -1.138370
					CHANNELS 3 Xrotation Yrotation Zrotation
					JOINT L_foot0002_bind_JNT
					{
						OFFSET 0.007014 -4.693133 9.886524
						CHANNELS 3 Xrotation Yrotation Zrotation
						End Site
						{
							OFFSET 0.000000 0.000000 0.000000
						}
					}
				}
			}
		}
		JOINT R_legUpper0001_bind_JNT
		{
			OFFSET -6.599999 -6.027000 0.539000
			CHANNELS 3 Xrotation Yrotation Zrotation
			JOINT R_legLower0001_bind_JNT
			{
				OFFSET 0.140710 -19.187164 0.040550
				CHANNELS 3 Xrotation Yrotation Zrotation
				JOINT R_foot0001_bind_JNT
				{
					OFFSET 0.132215 -18.028633 -1.138362
					CHANNELS 3 Xrotation Yrotation Zrotation
					JOINT R_foot0002_bind_JNT
					{
						OFFSET -0.007014 -4.693128 9.886505
						CHANNELS 3 Xrotation Yrotation Zrotation
						End Site
						{
							OFFSET 0.000000 0.000000 0.000000
						}
					}
				}
			}
		}
	}
}
MOTION
Frames: 14
Frame Time: 0.033333
0.000000 49.245399 0.000000 0.018761 -15.842275 0.008977 7.575131 15.112514 -0.856395 -2.358574 0.759981 1.678358 6.669118 1.767476 3.635006 9.667626 -0.343637 -1.275691 -0.367933 -0.070427 0.282292 -19.240160 -0.344569 -3.052500 9.162361 -1.721413 7.764776 -17.700304 -2.413998 -75.222755 -11.119066 20.312714 2.590327 -2.531052 -22.961847 -17.986517 12.329119 -0.931416 -7.746011 -22.554853 4.385873 68.030228 11.933908 -27.700954 -11.422376 4.800508 23.849205 3.074113 3.369358 14.304467 -1.802965 -13.271109 24.089178 9.928349 8.850533 0.569164 5.990927 -3.608257 -10.402611 -7.190757 -18.542845 -1.323931 -1.974922 -2.056055 -7.384093 3.268014 6.593313 -3.497747 1.562617 -7.087776 -0.614906 -2.308601 -1.773127 -0.242242 -0.379220
0.096425 49.182999 0.171350 0.005944 -14.732826 -0.013157 7.045498 14.628197 -0.594394 -2.212767 0.927365 1.957502 7.193467 2.156208 3.417839 9.084420 -0.638117 -1.145400 -0.202253 0.018625 0.304523 -20.227924 -0.888447 -2.503074 8.645028 -2.796010 8.000053 -17.306955 -2.158457 -74.463348 -12.175090 20.783037 1.528400 -1.891337 -23.054089 -18.075790 12.866045 -1.321252 -7.976381 -23.442656 4.411534 68.300911 9.900154 -26.728987 -12.233259 6.647636 25.216698 1.727760 2.689593 12.855371 -1.873193 -16.817738 26.722677 11.424155 12.586533 0.175341 8.064789 -0.209290 -13.591962 -5.083875 -23.191120 -1.291248 -1.805063 -0.310121 -6.906285 3.154384 4.454149 -3.948959 1.756586 -5.553071 -0.788749 -2.093265 -2.235583 -0.069793 -0.830101
-0.082837 49.216942 0.319551 0.006709 -14.828753 -0.018381 6.876634 15.450613 -0.942189 -2.060760 1.015291 2.050868 6.965394 2.131252 3.532523 9.028550 -0.956623 -0.995797 0.092558 -0.117599 0.404469 -20.283298 -1.378664 -2.138341 8.767847 -2.669551 8.454985 -17.084023 -1.508420 -74.712074 -12.258193 21.075817 1.472284 -1.693652 -23.328098 -18.114939 13.121174 -1.199376 -7.867127 -24.214672 5.068043 68.198677 10.627648 -26.965296 -11.803986 6.740520 24.674160 2.091644 2.509999 13.643438 -2.625402 -19.254278 27.567101 12.945341 15.478878 0.235096 9.342397 2.360569 -14.287089 -4.208162 -24.578814 -1.943157 -1.799899 1.105697 -6.801898 4.154941 3.258939 -4.819252 2.065472 -5.708942 -1.433265 -2.386755 -2.007016 -0.388109 -0.814910
-0.054944 49.111885 0.185188 0.010676 -14.957820 -0.019062 6.901147 16.154629 -0.886110 -2.021523 0.993045 2.151317 6.954103 2.069581 3.515869 9.043072 -0.937459 -0.899686 0.002959 -0.076743 0.269493 -20.236298 -1.523526 -2.162697 8.799026 -2.562830 8.800900 -16.957994 -1.038869 -75.031693 -12.287624 20.789101 1.596189 -1.713312 -23.520885 -17.908655 13.224011 -1.330373 -8.204700 -24.753307 5.847828 68.281281 10.830178 -26.233124 -11.898724 6.440353 24.496052 2.691410 2.539367 14.331805 -2.851378 -21.306807 27.675600 13.888737 17.632397 0.017830 9.805878 3.990263 -14.785320 -3.164225 -24.328083 -2.404047 -2.159437 1.190100 -6.826628 4.579093 2.874335 -5.073809 1.790503 -5.693732 -1.465743 -2.479839 -1.797631 -0.208940 -0.728408
0.064603 49.140205 0.133504 0.006328 -15.290504 -0.023044 6.958583 16.856487 -0.910292 -1.935732 0.992986 2.097143 6.664869 2.113194 3.408415 9.108807 -1.066943 -0.703143 0.026138 0.060366 0.244460 -20.040190 -1.733822 -1.940661 8.847456 -2.528918 9.188357 -17.011362 -0.932466 -75.286026 -12.332461 20.913471 1.195982 -1.802843 -23.442024 -17.204922 13.173385 -1.266343 -8.311749 -25.095203 6.341193 68.293152 11.122824 -26.053280 -11.892967 5.894322 24.384972 3.506048 2.679394 14.863421 -2.989416 -21.825842 27.815777 13.940094 17.498318 -0.338905 9.802714 2.364504 -14.603369 -2.540878 -20.850965 -2.088386 -3.330837 1.261037 -6.798779 4.176211 2.538486 -5.114047 2.046882 -5.881132 -1.465183 -2.252097 -1.397967 -0.449768 -0.761001
0.186483 49.175529 0.214345 0.021317 -15.475921 -0.011600 6.961679 17.214834 -0.858644 -1.979605 1.091840 1.937654 6.614740 2.104072 3.351105 9.140795 -1.017885 -0.663895 0.093997 -0.035243 0.439756 -20.172176 -1.776602 -1.812737 8.723812 -2.741441 9.020247 -16.675430 -0.542051 -75.149025 -12.286178 20.821724 1.169066 -1.922926 -23.193506 -17.010712 13.042323 -1.431883 -8.260156 -25.488422 6.990107 68.523033 11.432690 -25.484600 -11.873842 5.926846 24.118443 3.688229 3.001498 15.117836 -2.728699 -21.547585 27.887049 13.121320 15.599064 -0.704209 8.879690 -0.341976 -14.393167 -2.705751 -16.307379 -2.274912 -3.164693 1.097279 -6.730998 3.779978 2.233017 -5.035395 1.789315 -5.657527 -1.583235 -2.026326 -1.303143 -0.262637 -0.642791
0.288520 49.210518 0.402910 0.013153 -15.625121 -0.012443 7.166233 17.266062 -1.000391 -2.018276 1.082305 1.751311 6.702417 2.076953 3.196580 9.104350 -1.015653 -0.474008 -0.013063 0.043861 0.305472 -20.141550 -2.000864 -1.504401 8.295776 -2.826003 8.635332 -16.405943 -0.271089 -74.731331 -12.160958 21.190262 1.013361 -1.823001 -23.265018 -16.830460 12.660849 -1.296525 -7.903026 -25.478323 7.447203 68.451111 11.537060 -24.914469 -12.183843 5.956116 24.244524 4.474787 3.224907 15.240273 -2.318805 -20.222626 27.564365 11.759262 11.458767 -1.232467 7.176278 -3.240109 -14.344496 -2.983242 -12.368637 -1.876267 -2.993484 0.857239 -6.666057 3.118150 2.502343 -4.892190 1.643679 -5.653285 -1.279649 -1.966132 -1.389310 -0.269057 -0.375610
0.406748 49.280769 0.931052 0.016225 -15.845839 -0.019448 7.031045 17.227194 -1.071620 -2.061339 1.043335 1.719045 6.691699 2.170049 3.058073 9.348438 -1.085230 -0.321829 -0.032899 0.109793 0.280695 -20.047192 -2.076528 -1.320475 8.340612 -2.960605 8.201621 -16.285128 -0.182197 -74.436714 -12.385278 21.180342 1.181510 -1.823511 -22.865904 -16.834312 12.347203 -1.423186 -7.654076 -24.643055 7.502174 68.452225 11.336730 -24.549259 -12.265375 6.172668 24.348440 4.421643 3.518853 15.113620 -1.919302 -18.308159 26.987831 10.125897 6.983025 -1.290407 5.214733 -5.663778 -13.958119 -3.940835 -8.583867 -2.310196 -2.108093 0.686220 -6.335401 2.375319 2.500965 -5.097849 1.594437 -5.532261 -1.155295 -1.862421 -1.554306 -0.497209 -0.042567
0.548843 49.220806 1.634687 0.027385 -15.856544 -0.026689 6.863491 16.599295 -1.312559 -1.949569 1.193480 1.700727 6.544128 2.042735 3.115891 9.445243 -0.929694 -0.389068 -0.049885 0.123150 0.302603 -19.548201 -2.013739 -1.130244 8.575529 -2.767871 7.862210 -16.099886 -0.333618 -74.302666 -12.434517 21.249342 1.034394 -1.405455 -22.658186 -17.045273 12.355303 -1.428405 -7.457959 -23.811312 7.638247 68.205170 10.672873 -23.919779 -12.494108 6.572640 24.670959 4.558800 3.746930 14.550399 -1.914949 -15.839990 26.626137 8.412183 1.441370 -1.706019 3.214163 -7.105835 -13.979543 -3.997465 -4.869638 -2.329296 -1.224045 0.866601 -5.782359 2.077127 3.089283 -5.334682 1.745452 -6.038744 -1.108073 -1.703567 -2.004204 -0.587511 0.121051
0.636331 49.193123 2.510730 0.017211 -15.981174 -0.015585 6.661379 16.035450 -1.353575 -2.006829 1.003430 1.497084 6.545212 2.090278 2.906358 9.391937 -0.767512 -0.133491 0.172309 0.038124 0.167742 -19.371389 -1.832927 -0.602883 8.696397 -2.693199 7.705751 -15.900290 -0.520429 -74.184555 -12.572240 21.505453 0.929040 -1.349532 -22.646255 -17.162289 12.297183 -1.472065 -7.260843 -22.833643 7.294621 68.281265 10.493032 -23.543242 -12.781827 6.759148 24.899935 4.939741 3.532527 13.992836 -2.087779 -13.305711 25.848101 6.900198 -1.807421 -1.000857 1.834685 -7.901669 -13.150148 -3.098145 -2.700364 -2.186405 -0.749810 1.173915 -5.069592 2.238494 4.417163 -5.638856 1.677609 -6.961773 -1.093573 -1.425395 -2.558683 -0.509290 0.141371
0.710091 49.142921 3.267603 0.017277 -15.489755 -0.025273 6.510225 14.822997 -1.303488 -1.922792 0.990635 1.215096 6.475687 2.009623 2.529681 9.445369 -0.879337 -0.010064 -0.030297 0.096627 0.282180 -19.644850 -1.794184 -0.027271 8.596866 -2.891225 7.524675 -16.313967 -1.025554 -74.086197 -12.374423 21.833275 1.069967 -1.102663 -22.156139 -17.308765 12.007936 -1.473229 -7.171492 -21.197412 6.449248 68.586205 9.959781 -22.661760 -12.986453 6.811599 24.769197 5.060500 3.510934 12.878316 -1.876596 -10.256156 24.878199 4.763663 -4.934630 -0.530703 0.826865 -8.035119 -12.146608 -1.454314 -1.848690 -1.894451 -0.409330 -0.193051 -5.015032 1.759152 8.641219 -5.775025 2.011386 -8.406790 -0.628309 -1.294287 -3.389269 -0.385623 0.035974
0.874918 49.108147 3.837354 0.031030 -15.368484 -0.025299 6.576937 13.738347 -1.134367 -2.083781 0.891055 0.797874 6.524850 1.879790 2.062521 9.183272 -0.642343 0.174724 0.020581 0.059243 0.302223 -19.436972 -2.208788 0.513854 8.755735 -2.409032 7.372150 -17.218369 -2.097452 -74.193092 -12.582160 21.801033 1.360566 -0.844071 -21.948709 -17.317921 11.930279 -0.989063 -7.274503 -19.880732 5.257063 69.142387 9.441575 -22.202532 -13.202490 6.713468 24.858185 5.077928 3.308394 11.985176 -1.221543 -7.873691 24.170425 3.290079 -6.875778 0.221401 0.040172 -7.417303 -12.031073 -0.717709 -1.895928 -1.762097 -0.406110 -2.478684 -5.780859 0.517545 14.495634 -5.016685 1.932860 -9.562545 0.063455 -0.565463 -5.512532 -0.372802 0.172809
1.152154 49.160049 4.240043 0.016785 -14.866767 -0.013926 6.465508 11.989807 -0.802518 -1.738844 0.987772 0.423559 6.798810 1.989204 1.607802 8.918852 -0.693749 0.274286 0.041761 -0.119402 0.570927 -20.112377 -2.006437 0.662751 8.373622 -2.450458 7.134093 -18.450958 -3.353162 -73.559883 -12.550268 21.563189 0.722328 -0.288145 -21.652470 -17.103708 11.728563 -0.607619 -7.344885 -19.094900 4.006583 69.768738 8.937754 -22.131950 -13.273901 6.586914 24.983728 4.283618 3.254167 10.314171 -0.256725 -5.488461 23.455795 1.424148 -9.091374 1.286235 -0.335313 -7.099756 -11.544880 -1.005441 -1.741281 -1.473639 -0.118273 -7.299711 -7.077842 -1.334893 23.660288 -3.766902 1.842855 -9.395791 1.253593 0.729914 -10.055425 0.080448 -0.831687
1.376115 49.174576 4.732347 0.020040 -14.527747 -0.017099 6.819108 10.093867 -0.528920 -1.874935 1.106258 0.204516 7.241629 2.118954 0.820235 8.561499 -0.628987 0.661876 0.076168 0.050001 0.281540 -20.288103 -2.368829 1.084469 8.548079 -2.123750 7.250992 -20.118103 -4.920277 -73.226395 -13.109030 21.107046 0.480846 0.406628 -21.315453 -17.382687 11.323007 -0.073828 -7.391913 -18.598118 2.770046 70.365570 9.199682 -22.407192 -13.236192 5.808232 24.741013 4.212978 3.138275 8.434201 0.586957 -2.924792 23.051718 -0.018592 -10.877243 2.370921 -0.923209 -7.259291 -11.114368 -1.067094 -1.935483 -1.567506 -0.086184 -12.799913 -8.589896 -3.506255 33.027145 -2.600577 1.154258 -6.781713 3.450966 1.660909 -17.087919 0.451438 -1.662368
